<?xml version="1.0" encoding="utf-8"?>
<!-- Generator: Adobe Illustrator 19.2.1, SVG Export Plug-In . SVG Version: 6.00 Build 0)  -->
<svg version="1.1" id="Capa_1" xmlns="http://www.w3.org/2000/svg" xmlns:xlink="http://www.w3.org/1999/xlink" x="0px" y="0px"
	 viewBox="0 0 1294.1 479" style="enable-background:new 0 0 1294.1 479;" xml:space="preserve">
<style type="text/css">
	.st0{fill:#FFFFFF;}
	.st1{fill:url(#SVGID_1_);}
</style>
<g>
	<path class="st0" d="M479,459.5V257c-6.3,1.1-10.7,1.9-12.4,2.2l-25.3,8.3v123.2H364v-41.4c-26.5,22.9-60.3,35.7-96,35.7
		c-67.9,0-126.3-46.2-142.5-111.1c-2.7,0.4-5.3,0.9-8,1.3c-12.3,2-24.6,4-36.2,5.8c-5.8,0.9-12.1,1.4-18.8,1.4
		c-27.9,0-54.2-7.8-55.3-8.1L0,272.1v-78.2l13.1,3.9c0.2,0.1,24.8,7.3,49.6,7.3c5.6,0,10.9-0.4,15.6-1.1c11.8-1.8,24.1-3.8,36.5-5.8
		c4.2-0.7,8.4-1.4,12.6-2C145.7,134.1,202.7,91.3,268,91.3c35.7,0,69.5,12.8,96,35.7V85.7h77.3v103.3l19.8-6.5l0.7-0.1
		c0.1,0,6.9-1.2,17.2-3V16.9h77.3v151.4c8.7-0.9,15.6-1.3,20.7-1.3c20.3,0,60.2,14.2,64.6,15.8l6.7,2.4v78.6l-13.6-4.9
		c-11.2-4.1-43.5-14.6-57.7-14.6c-4.8,0-11.7,0.5-20.7,1.4v213.8H479z M202.5,262.4c10,27,36,45.7,65.6,45.7
		c23.4,0,45-11.8,57.9-30.7c-43-11.6-74.2-17.9-88.4-17.9C229.8,259.4,218.3,260.4,202.5,262.4z M237.5,182.2
		c18.7,0,55.4,8.5,88.7,17.4c-12.7-19-34.5-31.2-58.2-31.2c-15.6,0-30.4,5.1-42.4,14.3C230.2,182.3,234.1,182.2,237.5,182.2z"/>
	<g>
		<g>
			<linearGradient id="SVGID_1_" gradientUnits="userSpaceOnUse" x1="10.1707" y1="238.1825" x2="638.128" y2="238.1825">
				<stop  offset="0" style="stop-color:#900E14"/>
				<stop  offset="0.2895" style="stop-color:#BB0518"/>
				<stop  offset="1" style="stop-color:#E1001A"/>
			</linearGradient>
			<path class="st1" d="M576.9,177.1c-7.3,0-18.4,1-30.8,2.5V27.1h-56.9V188c-15,2.5-25.6,4.4-25.6,4.4L431.2,203V95.8h-56.9v56.3
				c-25.1-30.9-63.3-50.6-106.2-50.6c-64.1,0-117.9,44.1-132.7,103.7c-18.7,3-37.8,6.1-55.6,8.9c-31.5,4.9-69.6-6.5-69.6-6.5v56.9
				c0,0,38,11.4,69.6,6.5c17.2-2.7,35.6-5.7,53.7-8.6c11.4,64,67.3,112.5,134.5,112.5c42.9,0,81.1-19.8,106.2-50.6v56.3h56.9V260.1
				l33-10.9c0,0,10.4-1.9,25-4.3v204.3h56.9V236.6c12.4-1.5,23.5-2.5,30.8-2.5c19.1,0,61.2,15.2,61.2,15.2v-56.9
				C638.1,192.3,596,177.1,576.9,177.1z M268,318.2c-38.8,0-71.2-27.7-78.5-64.4c20-2.7,37-4.6,48-4.6c21.6,0,71.1,12.6,103.5,21.6
				C328.5,298.8,300.6,318.2,268,318.2z M237.5,192.3c-9,0-21.9,1.2-37.2,3.1c14.2-22.4,39.2-37.3,67.7-37.3
				c36.2,0,66.8,24.1,76.7,57.1C312.7,206.2,260,192.3,237.5,192.3z"/>
		</g>
	</g>
	<g>
		<path class="st0" d="M851,410.3V284.6h27v101.6H942v24.2H851z"/>
		<g>
			<path class="st0" d="M1262.1,336.3c-3.6-0.6-7.2-1.1-11-1.7c-5.9-28.5-31.2-49.9-61.5-49.9c-20.7,0-38.2,10.1-49.6,25.5
				c-1.8-2.5-3.7-4.9-5.9-7.2c-3.8-4-8.1-7.4-12.8-10.2c-4.7-2.9-9.8-5.1-15.3-6.7c-5.5-1.6-11.2-2.4-17.2-2.4c-8.8,0-17,1.7-24.7,5
				c-7.7,3.3-14.4,7.9-20.1,13.7c-5.7,5.8-10.2,12.5-13.6,20.2c-2.4,5.6-3.9,11.5-4.6,17.5l-24.5-54.8h-27.7L917,410.2h25l13.1-27.7
				h63.2l13.1,27.7h25.7l-5.2-11.5c3.7,2.7,7.8,5,12.2,6.9c7.7,3.3,15.9,5,24.7,5c6.1,0,11.9-0.8,17.6-2.5
				c5.7-1.6,10.9-3.9,15.7-6.9c4.8-3,9.1-6.5,13-10.7c1.6-1.7,3-3.5,4.4-5.4c11.5,15.2,29.6,25,50.1,25c30.1,0,55.3-21.2,61.4-49.5
				c3.8,0.6,7.5,1.2,11.1,1.8c14.5,2.3,32-3,32-3v-26.1C1294.1,333.3,1276.6,338.6,1262.1,336.3z M966.9,357.1l21-48.3h0.2
				l20.3,48.3H966.9z M1128.6,368.5c-1.8-0.9-4.2-2.2-7.1-3.7c-3.2,5.8-7.6,10.5-13.4,14.1c-5.8,3.6-12.2,5.3-19.2,5.3
				c-5.1,0-10-1-14.4-2.9c-4.5-1.9-8.4-4.6-11.8-8c-3.4-3.4-6-7.3-8-11.8c-1.9-4.5-2.9-9.3-2.9-14.4c0-5,1-9.8,2.9-14.4
				c1.9-4.6,4.6-8.5,8-11.8c3.4-3.3,7.3-6,11.8-8c4.5-2,9.3-3,14.4-3c6.8,0,13,1.7,18.6,5c5.6,3.3,9.9,7.7,13,13
				c2.9-1.4,5.3-2.6,7.2-3.5c1.9-0.9,3.6-1.8,5.1-2.5c0.2-0.1,0.3-0.2,0.5-0.2c-2.7,5.7-4.7,11.8-5.8,18.2c-1.9,10.8,2.4,26,2.4,26
				c0.4,1.3,0.9,2.6,1.3,3.8C1130.3,369.4,1129.4,368.9,1128.6,368.5z M1189.7,310.6c14,0,26.1,7.8,32.3,19.3
				c-13.6-2.1-25.5-3.6-32.3-3.6c-7.1,0-21,3-33.7,6.3C1161.7,319.7,1174.6,310.6,1189.7,310.6z M1189.7,384.1
				c-16.2,0-30-10.5-34.9-25.1c13-3.3,27.5-6.5,34.9-6.5c7.4,0,20.7,1.8,35.6,4.1C1221.2,372.4,1206.8,384.1,1189.7,384.1z"/>
			<path class="st0" d="M850.5,362.9l-55.9-78.1h-9.8h-21.7v30.9c-11.1-18.5-30.3-31.1-53.3-31.1c-30.3,0-55.5,21.4-61.5,49.9
				c-3.7,0.6-7.4,1.2-11,1.7c-14.5,2.3-32-3-32-3v26.1c0,0,17.5,5.2,32,3c3.6-0.6,7.3-1.2,11.1-1.8c6.1,28.3,31.2,49.5,61.4,49.5
				c22.5,0,42.2-11.9,53.3-29.7v29.9h21.7v-91.6l65.7,91.6h23.3V284.8h-23.3V362.9z M709.8,310.6c15,0,28,9,33.7,22
				c-12.7-3.3-26.5-6.3-33.7-6.3c-6.9,0-18.8,1.5-32.3,3.6C683.7,318.4,695.9,310.6,709.8,310.6z M709.8,384.1
				c-17.1,0-31.5-11.7-35.6-27.6c14.9-2.3,28.2-4.1,35.6-4.1c7.4,0,21.8,3.2,34.9,6.5C739.8,373.6,726.1,384.1,709.8,384.1z"/>
		</g>
		<g>
			<path class="st0" d="M680.2,458.4v-34.7h7.2v12.9h14.3v-12.9h7.2v34.7h-7.2v-15.4h-14.3v15.4H680.2z"/>
			<path class="st0" d="M771.2,458.4v-34.7h7.1v34.7H771.2z"/>
			<path class="st0" d="M847.8,446.1v12.3h-7.1v-34.7h15.4c3.6,0,6.4,0.9,8.3,2.8c1.9,1.9,2.8,4.7,2.8,8.3c0,3.6-0.9,6.3-2.8,8.3
				c-1.8,1.9-4.5,2.9-7.9,2.9H847.8z M847.9,439.8h6.9c1.9,0,3.2-0.4,4.1-1.2c0.8-0.8,1.3-2.1,1.3-3.8c0-1.6-0.4-2.9-1.2-3.7
				c-0.8-0.8-2.1-1.3-3.7-1.3h-7.3V439.8z"/>
			<path class="st0" d="M996.5,458.4v-34.7h7.2v12.9h14.3v-12.9h7.2v34.7h-7.2v-15.4h-14.3v15.4H996.5z"/>
			<path class="st0" d="M1085.8,441.1c0-5.6,1.5-10,4.6-13.3c3.1-3.3,7.2-4.9,12.3-4.9s9.3,1.6,12.4,4.9c3.1,3.3,4.6,7.7,4.6,13.3
				c0,5.6-1.5,10-4.6,13.3c-3.1,3.3-7.2,4.9-12.4,4.9s-9.3-1.6-12.3-4.9C1087.3,451.2,1085.8,446.7,1085.8,441.1z M1093,441.1
				c0,3.8,0.8,6.8,2.5,8.9c1.7,2.1,4.1,3.2,7.1,3.2c3.1,0,5.5-1.1,7.2-3.2c1.7-2.1,2.6-5.1,2.6-8.9c0-3.8-0.9-6.8-2.6-8.9
				c-1.7-2.1-4.1-3.2-7.2-3.2c-3,0-5.4,1.1-7.1,3.2C1093.9,434.3,1093,437.3,1093,441.1z"/>
			<path class="st0" d="M1187.4,446.1v12.3h-7.1v-34.7h15.4c3.6,0,6.4,0.9,8.3,2.8c1.9,1.9,2.8,4.7,2.8,8.3c0,3.6-0.9,6.3-2.8,8.3
				c-1.8,1.9-4.5,2.9-7.9,2.9H1187.4z M1187.5,439.8h6.9c1.9,0,3.2-0.4,4.1-1.2c0.8-0.8,1.3-2.1,1.3-3.8c0-1.6-0.4-2.9-1.2-3.7
				c-0.8-0.8-2.1-1.3-3.7-1.3h-7.3V439.8z"/>
		</g>
		<g>
			<path class="st0" d="M1217.6,461.6v-3.4h3.1v3.4H1217.6z"/>
			<path class="st0" d="M1238.2,450.7c-0.1-1.1-0.5-2-1.2-2.6c-0.7-0.6-1.7-0.9-3-0.9c-1.5,0-2.6,0.5-3.4,1.6
				c-0.8,1.1-1.2,2.6-1.2,4.6c0,2,0.4,3.5,1.2,4.6c0.8,1.1,1.9,1.6,3.3,1.6c1.3,0,2.3-0.3,3.1-1c0.8-0.7,1.2-1.6,1.4-2.9h2.6
				c-0.1,2-0.8,3.5-2.1,4.7c-1.3,1.1-3,1.7-5.1,1.7c-2.2,0-4-0.8-5.2-2.3c-1.3-1.5-1.9-3.6-1.9-6.3c0-2.7,0.7-4.9,2-6.4
				c1.3-1.5,3.1-2.3,5.5-2.3c2,0,3.7,0.5,4.9,1.6c1.2,1.1,1.9,2.5,2,4.3H1238.2z"/>
			<path class="st0" d="M1244.7,453.4c0-2.7,0.7-4.8,2-6.4c1.4-1.5,3.3-2.3,5.7-2.3c2.5,0,4.4,0.8,5.8,2.3c1.4,1.5,2,3.6,2,6.4
				c0,2.7-0.7,4.9-2,6.4c-1.4,1.5-3.3,2.3-5.7,2.3c-2.5,0-4.4-0.8-5.8-2.3C1245.4,458.3,1244.7,456.2,1244.7,453.4z M1247.5,453.4
				c0,2,0.4,3.6,1.3,4.6c0.9,1.1,2.1,1.6,3.7,1.6c1.6,0,2.8-0.5,3.7-1.6c0.8-1.1,1.3-2.6,1.3-4.6c0-2-0.4-3.5-1.3-4.6
				c-0.9-1.1-2.1-1.6-3.7-1.6c-1.6,0-2.9,0.5-3.7,1.6C1248,449.9,1247.5,451.4,1247.5,453.4z"/>
			<path class="st0" d="M1285.3,461.6v-10c0-1.6-0.2-2.8-0.7-3.4c-0.4-0.6-1.2-0.9-2.3-0.9c-1.3,0-2.3,0.4-3.1,1.2
				c-0.7,0.8-1.1,2-1.1,3.4v9.6h-2.8v-10c0-1.6-0.2-2.8-0.7-3.4c-0.4-0.6-1.2-0.9-2.3-0.9c-1.3,0-2.3,0.4-3.1,1.2
				c-0.7,0.8-1.1,2-1.1,3.4v9.6h-2.7v-16.2h2.6v2.3c0.6-0.9,1.3-1.6,2.2-2c0.8-0.4,1.8-0.7,2.9-0.7c1,0,1.9,0.2,2.6,0.6
				c0.7,0.4,1.3,1.1,1.9,1.9c0.7-0.9,1.5-1.5,2.3-1.9c0.8-0.4,1.8-0.6,2.9-0.6c1.1,0,2,0.2,2.7,0.6c0.8,0.4,1.4,0.9,1.8,1.6
				c0.2,0.4,0.4,0.9,0.5,1.5c0.1,0.6,0.2,1.5,0.2,2.7v0.5v9.8H1285.3z"/>
		</g>
	</g>
</g>
</svg>
